<?xml version="1.0" standalone="no"?>
<!DOCTYPE svg PUBLIC "-//W3C//DTD SVG 20010904//EN"
 "http://www.w3.org/TR/2001/REC-SVG-20010904/DTD/svg10.dtd">
<svg version="1.0" xmlns="http://www.w3.org/2000/svg"
 width="512.000000pt" height="512.000000pt" viewBox="0 0 512.000000 512.000000"
 preserveAspectRatio="xMidYMid meet">
<metadata>
Created by potrace 1.11, written by Peter Selinger 2001-2013
</metadata>
<g transform="translate(0.000000,512.000000) scale(0.100000,-0.100000)"
fill="#000000" stroke="none">
<path d="M386 5109 c-21 -5 -68 -23 -105 -41 -78 -37 -182 -137 -223 -214 -62
-115 -58 34 -58 -2294 0 -1422 4 -2140 11 -2170 29 -127 139 -271 255 -332
115 -62 -34 -58 2294 -58 1422 0 2140 4 2170 11 127 29 271 139 332 255 62
115 58 -34 58 2294 0 1422 -4 2140 -11 2170 -29 127 -139 271 -255 332 -115
62 35 58 -2299 57 -1243 -1 -2146 -5 -2169 -10z m1774 -1714 l0 -495 400 0
400 0 0 495 0 495 350 0 350 0 0 -1330 0 -1330 -350 0 -350 0 0 530 0 530
-400 0 -400 0 0 -530 0 -530 -350 0 -350 0 0 1330 0 1330 350 0 350 0 0 -495z"/>
</g>
</svg>
