<svg viewBox="0 0 319 91" fill="none" xmlns="http://www.w3.org/2000/svg">
    <path d="M0.18399 1.19994H12.568V18.6239H26.536V1.19994H38.92V47.9999H26.536V29.4239H12.568V47.9999H0.18399V1.19994Z" fill="url(#gradient)"/>
    <path d="M49.2621 1.19994H79.5021V11.5679H61.6461V18.9119H76.9101V29.2799H61.6461V37.6319H80.2221V47.9999H49.2621V1.19994Z" fill="url(#gradient)"/>
    <path d="M114.47 47.9999L106.406 32.3039H101.654V47.9999H89.2699V1.19994H106.982C112.598 1.19994 117.11 2.37594 120.518 4.72794C123.974 7.03194 125.702 10.8959 125.702 16.3199C125.702 19.5359 125.03 22.2719 123.686 24.5279C122.342 26.7839 120.494 28.5599 118.142 29.8559L128.294 47.9999H114.47ZM101.654 22.5119H106.118C108.566 22.5119 110.414 21.9839 111.662 20.9279C112.958 19.8719 113.606 18.3359 113.606 16.3199C113.606 14.3519 112.982 12.9839 111.734 12.2159C110.534 11.3999 108.662 10.9919 106.118 10.9919H101.654V22.5119Z" fill="url(#gradient)"/>
    <path d="M134.621 1.19994H147.869L154.925 20.3519C155.261 21.3119 155.717 22.7999 156.293 24.8159L157.373 28.5599H157.661L158.741 24.8159C159.317 22.7999 159.773 21.3119 160.109 20.3519L166.877 1.19994H180.125V47.9999H168.893V34.1759C168.893 32.3999 169.037 30.1199 169.325 27.3359C169.613 24.5039 169.925 21.8879 170.261 19.4879L170.477 17.4719H170.189L166.301 28.7039L160.541 44.1839H153.917L148.157 28.7039L144.413 17.4719H144.125L144.341 19.4879C144.677 21.8879 144.989 24.5039 145.277 27.3359C145.565 30.1199 145.709 32.3999 145.709 34.1759V47.9999H134.621V1.19994Z" fill="url(#gradient)"/>
    <path d="M210.248 48.8639C205.928 48.8639 202.112 47.9039 198.8 45.9839C195.536 44.0159 192.992 41.1839 191.168 37.4879C189.392 33.7919 188.504 29.4239 188.504 24.3839C188.504 19.3439 189.392 15.0239 191.168 11.4239C192.992 7.77594 195.536 5.01594 198.8 3.14394C202.112 1.27194 205.928 0.335938 210.248 0.335938C214.568 0.335938 218.36 1.29594 221.624 3.21594C224.936 5.08794 227.48 7.82394 229.256 11.4239C231.08 15.0239 231.992 19.3439 231.992 24.3839C231.992 29.4239 231.08 33.7919 229.256 37.4879C227.48 41.1839 224.936 44.0159 221.624 45.9839C218.36 47.9039 214.568 48.8639 210.248 48.8639ZM210.248 38.2079C213.032 38.2079 215.24 36.9839 216.872 34.5359C218.504 32.0399 219.32 28.6559 219.32 24.3839C219.32 20.1599 218.504 16.8719 216.872 14.5199C215.288 12.1679 213.08 10.9919 210.248 10.9919C207.416 10.9919 205.184 12.1679 203.552 14.5199C201.968 16.8719 201.176 20.1599 201.176 24.3839C201.176 28.6559 201.992 32.0399 203.624 34.5359C205.256 36.9839 207.464 38.2079 210.248 38.2079Z" fill="url(#gradient)"/>
    <path d="M255.203 48.8639C252.131 48.8639 249.011 48.3119 245.843 47.2079C242.723 46.0559 239.939 44.3759 237.491 42.1679L244.547 33.6719C246.227 35.0159 248.051 36.1199 250.019 36.9839C251.987 37.7999 253.811 38.2079 255.491 38.2079C259.043 38.2079 260.819 37.1039 260.819 34.8959C260.819 34.1759 260.579 33.5999 260.099 33.1679C259.619 32.6879 258.875 32.2319 257.867 31.7999C256.859 31.3199 255.731 30.8399 254.483 30.3599L248.651 27.9119C245.867 26.8079 243.587 25.1519 241.811 22.9439C240.083 20.7359 239.219 18.0479 239.219 14.8799C239.219 12.2399 239.963 9.81594 241.451 7.60794C242.939 5.35194 245.003 3.57594 247.643 2.27994C250.331 0.983938 253.331 0.335938 256.643 0.335938C259.427 0.335938 262.187 0.863938 264.923 1.91994C267.707 2.97594 270.131 4.53594 272.195 6.59994L266.003 14.3759C264.371 13.2239 262.811 12.3839 261.323 11.8559C259.883 11.2799 258.323 10.9919 256.643 10.9919C255.107 10.9919 253.907 11.2799 253.043 11.8559C252.179 12.3839 251.747 13.1519 251.747 14.1599C251.747 14.8799 252.011 15.4799 252.539 15.9599C253.067 16.4399 253.883 16.9199 254.987 17.3999C256.091 17.8799 257.315 18.3599 258.659 18.8399L264.348 21.0719C270.444 23.4719 273.491 27.7439 273.491 33.8879C273.491 36.5759 272.747 39.0719 271.259 41.3759C269.819 43.6319 267.707 45.4559 264.923 46.8479C262.187 48.1919 258.947 48.8639 255.203 48.8639Z" fill="url(#gradient)"/>
    <path d="M303.188 38.0639H290.084L287.78 47.9999H275.108L289.364 1.19994H304.34L318.596 47.9999H305.492L303.188 38.0639ZM300.956 28.4879L300.164 25.2479C299.54 22.7999 298.916 20.1119 298.292 17.1839L296.708 10.4159H296.42L295.988 12.4319C294.932 17.7119 293.972 21.9839 293.108 25.2479L292.316 28.4879H300.956Z" fill="url(#gradient)"/>
    <path d="M57.856 44.552C57.744 45.0373 57.632 45.7093 57.52 46.568C57.408 47.3893 57.296 48.2666 57.184 49.2C57.1093 50.096 57.0347 50.9733 56.96 51.832C56.8853 52.6906 56.848 53.3813 56.848 53.904C56.8107 54.8 56.904 55.192 57.128 55.08C57.352 54.9306 57.5573 54.4826 57.744 53.736C57.856 53.288 58.0053 52.6906 58.192 51.944C58.3787 51.1973 58.584 50.4506 58.808 49.704C59.0693 48.92 59.3307 48.192 59.592 47.52C59.8907 46.848 60.1893 46.3253 60.488 45.952C60.8987 45.5413 61.4587 45.2986 62.168 45.224C62.8773 45.112 63.4187 45.3173 63.792 45.84C63.9787 46.1386 64.128 46.5866 64.24 47.184C64.3893 47.7813 64.4827 48.4346 64.52 49.144C64.5947 49.816 64.632 50.4693 64.632 51.104C64.6693 51.7386 64.688 52.224 64.688 52.56C64.688 52.784 64.7253 52.84 64.8 52.728C64.8747 52.5786 64.9307 52.4666 64.968 52.392C65.2293 51.608 65.5653 50.6746 65.976 49.592C66.424 48.5093 66.928 47.3706 67.488 46.176C68.048 44.9813 68.664 43.8053 69.336 42.648C70.0453 41.4533 70.792 40.3893 71.576 39.456C72.5467 38.336 73.4427 37.6266 74.264 37.328C75.1227 36.992 75.832 36.992 76.392 37.328C76.952 37.664 77.3253 38.3173 77.512 39.288C77.6987 40.2213 77.6427 41.3973 77.344 42.816C77.008 44.3466 76.6347 45.952 76.224 47.632C75.8507 49.2746 75.496 50.9546 75.16 52.672C74.824 54.352 74.5253 56.032 74.264 57.712C74.04 59.3546 73.928 60.96 73.928 62.528C73.928 63.76 73.9653 64.8053 74.04 65.664C74.1147 66.5226 74.2827 67.0453 74.544 67.232C74.8053 67.4186 75.1413 67.2133 75.552 66.616C76 66.056 76.56 64.992 77.232 63.424C77.6053 62.528 78.0907 61.3333 78.688 59.84C79.2853 58.384 79.9387 56.8906 80.648 55.36C81.3947 53.792 82.16 52.3173 82.944 50.936C83.728 49.5546 84.512 48.5093 85.296 47.8C85.5947 47.5386 85.8187 47.52 85.968 47.744C86.1173 47.968 86.08 48.2293 85.856 48.528C84.9973 49.5733 84.1947 50.7866 83.448 52.168C82.7013 53.5493 81.992 54.9493 81.32 56.368C80.6853 57.7493 80.1067 59.0746 79.584 60.344C79.0987 61.6506 78.6693 62.7333 78.296 63.592C77.4747 65.5333 76.728 66.8586 76.056 67.568C75.4213 68.3146 74.7307 68.688 73.984 68.688C73.0133 68.688 72.2667 68.0906 71.744 66.896C71.2213 65.7013 71.0347 64.1333 71.184 62.192C71.4827 58.6826 71.9307 55.36 72.528 52.224C73.1253 49.088 73.8907 45.8026 74.824 42.368C75.1973 40.912 75.328 39.8853 75.216 39.288C75.1413 38.6906 74.8987 38.4106 74.488 38.448C74.1147 38.4853 73.6293 38.784 73.032 39.344C72.4347 39.8666 71.8373 40.5573 71.24 41.416C70.7173 42.1626 70.176 43.0586 69.616 44.104C69.056 45.112 68.5147 46.176 67.992 47.296C67.5067 48.416 67.0587 49.536 66.648 50.656C66.2373 51.7386 65.9013 52.728 65.64 53.624C65.4533 54.3333 65.248 54.8933 65.024 55.304C64.8373 55.6773 64.4267 55.8826 63.792 55.92C63.568 55.92 63.344 55.8453 63.12 55.696C62.896 55.5466 62.7467 55.2106 62.672 54.688C62.6347 54.352 62.5973 53.904 62.56 53.344C62.56 52.784 62.56 52.2053 62.56 51.608C62.56 50.9733 62.5413 50.376 62.504 49.816C62.4667 49.2186 62.4293 48.752 62.392 48.416C62.3173 48.0053 62.0933 47.6693 61.72 47.408C61.384 47.1466 61.0107 47.296 60.6 47.856C60.3013 48.304 59.984 49.0506 59.648 50.096C59.3493 51.104 59.0693 52.168 58.808 53.288C58.584 54.408 58.3787 55.4346 58.192 56.368C58.0053 57.3013 57.8933 57.8613 57.856 58.048C57.7813 58.4213 57.5947 58.608 57.296 58.608C56.8853 58.5706 56.456 58.496 56.008 58.384C55.56 58.2346 55.2613 58.0666 55.112 57.88C54.8133 57.544 54.6453 56.7413 54.608 55.472C54.5707 54.1653 54.608 52.7653 54.72 51.272C54.7947 49.7786 54.9067 48.36 55.056 47.016C55.2053 45.672 55.3173 44.776 55.392 44.328C55.4293 44.104 55.5787 43.9546 55.84 43.88C56.1387 43.768 56.4373 43.7306 56.736 43.768C57.072 43.768 57.352 43.8426 57.576 43.992C57.8 44.104 57.8933 44.2906 57.856 44.552Z" fill="white"/>
    <path d="M107.082 40.52C107.642 37.9066 107.941 35.648 107.978 33.744C108.016 31.8026 107.941 30.1226 107.754 28.704C107.456 26.576 106.952 25.0266 106.242 24.056C105.533 23.048 104.749 22.488 103.89 22.376C103.032 22.264 102.173 22.5066 101.314 23.104C100.456 23.7013 99.7275 24.5413 99.1302 25.624C98.5702 26.6693 98.1968 27.8826 98.0102 29.264C97.8608 30.608 98.0475 31.9706 98.5702 33.352C99.0928 34.7333 100.026 36.0586 101.37 37.328C102.714 38.5973 104.618 39.6613 107.082 40.52ZM94.4262 46.736C93.3808 45.4666 92.3355 44.832 91.2902 44.832C90.6182 44.832 90.0022 45.168 89.4422 45.84C88.8822 46.512 88.4155 47.352 88.0422 48.36C87.6688 49.3306 87.3702 50.3946 87.1462 51.552C86.9222 52.7093 86.7915 53.792 86.7542 54.8C86.7542 55.7706 86.8475 56.5733 87.0342 57.208C87.2582 57.8426 87.5755 58.16 87.9862 58.16C88.1728 58.1226 88.3968 58.0293 88.6582 57.88C88.9568 57.6933 89.3115 57.3386 89.7222 56.816C90.0955 56.2933 90.5062 55.584 90.9542 54.688C91.4022 53.792 91.8315 52.8586 92.2422 51.888C92.6528 50.9173 93.0448 49.984 93.4182 49.088C93.7915 48.1546 94.1275 47.3706 94.4262 46.736ZM92.0742 43.936C93.0822 44.2346 94.0342 44.8506 94.9302 45.784C95.0049 45.5973 95.0982 45.4293 95.2102 45.28C95.3222 45.1306 95.4155 44.9813 95.4902 44.832C95.6395 44.5706 95.8448 44.4586 96.1062 44.496C96.3675 44.496 96.6288 44.5893 96.8902 44.776C97.1515 44.9626 97.3568 45.2053 97.5062 45.504C97.6555 45.8026 97.6928 46.0826 97.6182 46.344C97.5435 46.6426 97.3195 47.3146 96.9462 48.36C96.6102 49.4053 96.2368 50.5813 95.8262 51.888C95.4155 53.1946 95.0422 54.5386 94.7062 55.92C94.4075 57.264 94.2395 58.384 94.2022 59.28C94.2022 60.064 94.2582 60.7546 94.3702 61.352C94.5195 61.9866 94.7062 62.472 94.9302 62.808C95.1915 63.144 95.4902 63.2933 95.8262 63.256C96.1995 63.256 96.5915 63.032 97.0022 62.584C97.4128 62.136 97.9168 61.3893 98.5142 60.344C99.1115 59.2986 99.7462 58.104 100.418 56.76C101.128 55.416 101.818 53.9786 102.49 52.448C103.2 50.9173 103.853 49.4426 104.45 48.024C105.048 46.6053 105.552 45.3173 105.962 44.16C106.41 43.0026 106.728 42.1253 106.914 41.528C104.04 40.4826 101.818 39.2506 100.25 37.832C98.7195 36.4133 97.6742 34.9386 97.1142 33.408C96.5542 31.84 96.3862 30.3093 96.6102 28.816C96.8715 27.3226 97.3568 25.9973 98.0662 24.84C98.8128 23.6453 99.7088 22.712 100.754 22.04C101.8 21.3306 102.845 21.032 103.89 21.144C104.973 21.2186 105.944 21.76 106.802 22.768C107.698 23.7386 108.352 25.3253 108.762 27.528C109.061 29.096 109.173 30.9813 109.098 33.184C109.024 35.3493 108.688 37.888 108.09 40.8L109.098 41.136C110.368 41.584 111.376 42.088 112.122 42.648C112.906 43.208 113.168 43.8986 112.906 44.72C112.682 45.3173 112.402 46.1573 112.066 47.24C111.73 48.2853 111.376 49.4426 111.002 50.712C110.629 51.9813 110.256 53.2693 109.882 54.576C109.509 55.8453 109.192 57.0026 108.93 58.048C108.594 59.3546 108.296 60.7173 108.034 62.136C107.773 63.5546 107.736 64.936 107.922 66.28C108.146 67.96 108.632 68.7813 109.378 68.744C110.162 68.744 110.984 67.96 111.842 66.392C112.216 65.72 112.738 64.6 113.41 63.032C114.12 61.5013 114.885 59.8213 115.706 57.992C116.565 56.1626 117.461 54.3706 118.394 52.616C119.328 50.824 120.224 49.3493 121.082 48.192C121.232 48.0053 121.381 47.8933 121.53 47.856C121.68 47.7813 121.81 47.7813 121.922 47.856C122.034 47.8933 122.109 47.9866 122.146 48.136C122.184 48.248 122.128 48.3973 121.978 48.584C121.008 49.8533 120.074 51.3653 119.178 53.12C118.282 54.8746 117.442 56.648 116.658 58.44C115.874 60.232 115.146 61.912 114.474 63.48C113.84 65.0853 113.298 66.336 112.85 67.232C112.29 68.24 111.693 68.9866 111.058 69.472C110.424 69.9573 109.789 70.1813 109.154 70.144C108.52 70.144 107.922 69.9013 107.362 69.416C106.84 68.9306 106.41 68.2586 106.074 67.4C105.44 65.72 105.216 63.984 105.402 62.192C105.589 60.4373 105.888 58.72 106.298 57.04C106.522 56.0693 106.802 55.024 107.138 53.904C107.474 52.7466 107.792 51.6266 108.09 50.544C108.426 49.424 108.725 48.3786 108.986 47.408C109.285 46.4373 109.528 45.6346 109.714 45C109.789 44.776 109.845 44.5333 109.882 44.272C109.957 44.0106 109.976 43.7493 109.938 43.488C109.901 43.1893 109.789 42.928 109.602 42.704C109.453 42.48 109.173 42.2746 108.762 42.088C108.613 42.0133 108.464 41.976 108.314 41.976C108.202 41.9386 108.053 41.8826 107.866 41.808C107.717 42.4426 107.4 43.3573 106.914 44.552C106.466 45.7466 105.925 47.0906 105.29 48.584C104.656 50.04 103.965 51.5706 103.218 53.176C102.472 54.7813 101.725 56.2933 100.978 57.712C100.269 59.0933 99.5782 60.3066 98.9062 61.352C98.2715 62.3973 97.7302 63.1066 97.2822 63.48C96.7222 63.9653 96.1435 64.2453 95.5462 64.32C94.9862 64.3946 94.4635 64.32 93.9782 64.096C93.5302 63.872 93.1382 63.5546 92.8022 63.144C92.5035 62.7333 92.2982 62.2853 92.1862 61.8C91.9995 60.904 91.9435 59.9706 92.0182 59C92.1302 57.992 92.2982 56.984 92.5222 55.976C92.7462 54.968 93.0075 53.9786 93.3062 53.008C93.6048 52 93.8662 51.048 94.0902 50.152C93.9409 50.5626 93.7168 51.104 93.4182 51.776C93.1195 52.448 92.8022 53.1573 92.4662 53.904C92.1302 54.6133 91.7755 55.304 91.4022 55.976C91.0662 56.6106 90.7675 57.096 90.5062 57.432C90.0582 57.992 89.5728 58.4213 89.0502 58.72C88.5275 59.0186 87.9862 59.1493 87.4262 59.112C86.9035 59.112 86.3808 58.944 85.8582 58.608C85.3728 58.272 84.9622 57.768 84.6262 57.096C84.2902 56.424 84.1035 55.584 84.0662 54.576C84.0288 53.568 84.1035 52.5413 84.2902 51.496C84.4768 50.4133 84.7942 49.368 85.2422 48.36C85.6528 47.3146 86.1755 46.4186 86.8102 45.672C87.4822 44.888 88.2475 44.328 89.1062 43.992C90.0022 43.656 90.9915 43.6373 92.0742 43.936Z" fill="white"/>
    <path d="M119.438 68.464C121.044 66.672 122.854 64.936 124.87 63.256C126.924 61.6133 128.94 60.1386 130.918 58.832C130.993 57.824 131.03 57.0213 131.03 56.424C131.068 55.8266 131.086 55.3226 131.086 54.912C131.124 54.464 131.142 54.0906 131.142 53.792C131.142 53.456 131.161 53.064 131.198 52.616C131.273 51.384 131.236 50.6373 131.086 50.376C130.937 50.0773 130.62 50.4506 130.134 51.496C129.724 52.4293 129.294 53.344 128.846 54.24C128.398 55.136 127.932 55.9013 127.446 56.536C127.073 57.096 126.7 57.5626 126.326 57.936C125.953 58.272 125.58 58.5333 125.206 58.72C124.572 59.056 123.993 59.168 123.47 59.056C122.985 58.944 122.537 58.72 122.126 58.384C121.753 58.0106 121.436 57.5626 121.174 57.04C120.913 56.5173 120.726 56.0133 120.614 55.528C120.204 53.9226 120.148 52.2426 120.446 50.488C120.745 48.696 121.268 47.0346 122.014 45.504C122.164 45.2053 122.425 44.9813 122.798 44.832C123.209 44.6826 123.582 44.6266 123.918 44.664C124.292 44.664 124.572 44.776 124.758 45C124.945 45.1866 124.926 45.4853 124.702 45.896C124.105 46.9786 123.657 48.2293 123.358 49.648C123.06 51.0293 122.91 52.3546 122.91 53.624C122.91 54.856 123.041 55.9013 123.302 56.76C123.564 57.6186 123.974 58.0106 124.534 57.936C125.206 57.6746 125.916 57.0213 126.662 55.976C127.073 55.3413 127.484 54.6133 127.894 53.792C128.342 52.9333 128.79 52.0373 129.238 51.104C129.612 50.2826 129.892 49.536 130.078 48.864C130.265 48.192 130.489 47.5946 130.75 47.072C130.974 46.624 131.348 46.344 131.87 46.232C132.43 46.12 132.804 46.3813 132.99 47.016C133.177 47.7253 133.326 48.5466 133.438 49.48C133.588 50.376 133.7 51.2906 133.774 52.224C133.886 53.1573 133.942 54.072 133.942 54.968C133.98 55.8266 133.961 56.5546 133.886 57.152C135.006 56.2933 135.921 55.5093 136.63 54.8C137.377 54.0906 138.03 53.4 138.59 52.728C139.15 52.056 139.673 51.3466 140.158 50.6C140.681 49.8533 141.297 48.9946 142.006 48.024C142.081 47.912 142.193 47.8373 142.342 47.8C142.492 47.7626 142.622 47.7626 142.734 47.8C142.884 47.8373 142.977 47.9306 143.014 48.08C143.052 48.192 143.014 48.3413 142.902 48.528C142.118 49.6853 141.428 50.6746 140.83 51.496C140.233 52.3173 139.617 53.1013 138.982 53.848C138.385 54.5573 137.694 55.2666 136.91 55.976C136.126 56.6853 135.137 57.488 133.942 58.384C133.905 59.9146 133.793 61.5573 133.606 63.312C133.457 65.0666 133.214 66.8586 132.878 68.688C132.58 70.5546 132.188 72.4213 131.702 74.288C131.217 76.1546 130.638 77.984 129.966 79.776C128.884 82.5386 127.689 84.7413 126.382 86.384C125.076 88.064 123.75 89.2586 122.406 89.968C121.1 90.6773 119.83 90.9573 118.598 90.808C117.366 90.6586 116.302 90.1733 115.406 89.352C114.473 88.5306 113.782 87.4106 113.334 85.992C112.886 84.6106 112.774 83.0053 112.998 81.176C113.222 79.3466 113.838 77.3493 114.846 75.184C115.854 73.0186 117.385 70.7786 119.438 68.464ZM127.334 78.656C127.708 77.4986 128.081 76.2106 128.454 74.792C128.828 73.3733 129.164 71.8613 129.462 70.256C129.798 68.6506 130.078 66.9893 130.302 65.272C130.564 63.5546 130.75 61.8186 130.862 60.064C128.958 61.296 127.054 62.696 125.15 64.264C123.284 65.8693 121.566 67.568 119.998 69.36C118.244 71.376 116.918 73.336 116.022 75.24C115.089 77.1813 114.492 78.9733 114.23 80.616C113.932 82.2586 113.932 83.7146 114.23 84.984C114.529 86.2533 115.014 87.2613 115.686 88.008C116.358 88.7546 117.18 89.184 118.15 89.296C119.084 89.408 120.073 89.1093 121.118 88.4C122.201 87.728 123.284 86.5893 124.366 84.984C125.449 83.416 126.438 81.3066 127.334 78.656Z" fill="white"/>
    <path d="M161.269 44.216C163.098 42.7226 164.815 41.0053 166.421 39.064C168.026 37.1226 169.482 35.1066 170.789 33.016C172.319 30.6266 173.383 28.4613 173.981 26.52C174.615 24.5786 174.895 22.9733 174.821 21.704C174.746 20.4346 174.391 19.5573 173.757 19.072C173.159 18.5866 172.375 18.624 171.405 19.184C170.471 19.7066 169.445 20.808 168.325 22.488C167.205 24.1306 166.103 26.464 165.021 29.488C164.087 32.064 163.322 34.6213 162.725 37.16C162.127 39.6613 161.642 42.0133 161.269 44.216ZM158.805 56.984C158.506 55.08 158.375 53.008 158.413 50.768C158.413 48.528 158.562 46.2133 158.861 43.824C159.197 41.3973 159.663 38.9333 160.261 36.432C160.895 33.9306 161.679 31.4666 162.613 29.04C163.845 25.8293 165.17 23.328 166.589 21.536C168.045 19.7066 169.407 18.4933 170.677 17.896C171.983 17.2986 173.122 17.2426 174.093 17.728C175.063 18.2133 175.679 19.1466 175.941 20.528C176.202 21.9093 176.034 23.72 175.437 25.96C174.839 28.1626 173.626 30.664 171.797 33.464C170.453 35.5173 168.922 37.5706 167.205 39.624C165.525 41.64 163.527 43.5626 161.213 45.392C161.026 47.744 160.914 49.7973 160.877 51.552C160.839 53.2693 160.914 55.0053 161.101 56.76C161.325 58.776 161.698 60.3813 162.221 61.576C162.781 62.808 163.471 63.536 164.293 63.76C165.114 63.984 166.029 63.648 167.037 62.752C168.082 61.856 169.221 60.3253 170.453 58.16C171.349 56.592 172.226 54.9866 173.085 53.344C173.943 51.664 174.821 49.928 175.717 48.136C175.866 47.8373 176.109 47.744 176.445 47.856C176.781 47.9306 176.855 48.1546 176.669 48.528C175.81 50.32 174.951 52.056 174.093 53.736C173.271 55.3786 172.431 56.9653 171.573 58.496C170.266 60.8106 169.053 62.528 167.933 63.648C166.813 64.8053 165.655 65.3653 164.461 65.328C163.863 65.328 163.266 65.16 162.669 64.824C162.109 64.5253 161.567 64.04 161.045 63.368C160.559 62.696 160.111 61.8373 159.701 60.792C159.327 59.7466 159.029 58.4773 158.805 56.984Z" fill="white"/>
    <path d="M174.525 50.04C174.711 49.704 174.917 49.368 175.141 49.032C175.365 48.6586 175.589 48.3226 175.813 48.024C176.186 47.576 176.578 47.3333 176.989 47.296C177.437 47.2586 177.791 47.352 178.053 47.576C178.351 47.8 178.519 48.1173 178.557 48.528C178.594 48.9386 178.426 49.3866 178.053 49.872C177.866 50.0586 177.679 50.2826 177.493 50.544C177.343 50.768 177.194 50.992 177.045 51.216C177.642 51.4026 178.37 51.608 179.229 51.832C180.087 52.0186 180.853 52.1493 181.525 52.224C181.413 51.552 181.207 50.8613 180.909 50.152C180.647 49.4426 180.311 48.7893 179.901 48.192C179.527 47.5573 179.079 47.016 178.557 46.568C178.071 46.0826 177.53 45.7466 176.933 45.56C176.149 45.336 175.383 45.2986 174.637 45.448C173.853 45.56 173.274 45.84 172.901 46.288C172.49 46.6986 172.378 47.24 172.565 47.912C172.751 48.5466 173.405 49.256 174.525 50.04ZM176.149 52.392C175.327 53.6613 174.805 54.856 174.581 55.976C174.319 57.096 174.263 58.0853 174.413 58.944C174.525 59.7653 174.805 60.456 175.253 61.016C175.663 61.6133 176.13 62.0053 176.653 62.192C177.213 62.3786 177.773 62.36 178.333 62.136C178.93 61.9493 179.434 61.5013 179.845 60.792C180.143 60.3066 180.405 59.728 180.629 59.056C180.89 58.384 181.095 57.712 181.245 57.04C181.431 56.3306 181.562 55.6586 181.637 55.024C181.711 54.3893 181.73 53.8666 181.693 53.456C180.909 53.456 179.994 53.3626 178.949 53.176C177.941 52.952 177.007 52.6906 176.149 52.392ZM176.317 44.608C177.25 44.7573 178.109 45.0746 178.893 45.56C179.714 46.0453 180.442 46.6426 181.077 47.352C181.749 48.0613 182.309 48.8453 182.757 49.704C183.242 50.5253 183.597 51.3653 183.821 52.224C185.239 52.112 186.509 51.72 187.629 51.048C188.786 50.376 189.869 49.4053 190.877 48.136C191.063 47.8746 191.306 47.8373 191.605 48.024C191.903 48.2106 191.941 48.4533 191.717 48.752C190.671 50.0586 189.514 51.0666 188.245 51.776C186.975 52.4853 185.557 52.9706 183.989 53.232C184.175 54.4266 184.138 55.6586 183.877 56.928C183.615 58.1973 183.167 59.3173 182.533 60.288C181.749 61.5573 180.89 62.416 179.957 62.864C179.061 63.312 178.165 63.4426 177.269 63.256C176.41 63.1066 175.626 62.6586 174.917 61.912C174.17 61.2026 173.61 60.3066 173.237 59.224C172.826 58.1413 172.658 56.9093 172.733 55.528C172.77 54.1466 173.125 52.728 173.797 51.272C172.714 50.5626 172.023 49.7786 171.725 48.92C171.426 48.0613 171.426 47.296 171.725 46.624C172.023 45.9146 172.583 45.3546 173.405 44.944C174.226 44.5333 175.197 44.4213 176.317 44.608Z" fill="white"/>
    <path d="M194.37 45.728C194.184 46.176 193.997 46.7546 193.81 47.464C193.624 48.136 193.437 48.864 193.25 49.648C193.101 50.432 192.97 51.1973 192.858 51.944C192.784 52.6906 192.746 53.344 192.746 53.904C192.709 55.0986 192.765 56.088 192.914 56.872C193.064 57.6186 193.269 58.216 193.53 58.664C193.829 59.0746 194.146 59.3173 194.482 59.392C194.856 59.504 195.229 59.4853 195.602 59.336C196.312 59.0373 196.984 58.4026 197.618 57.432C198.29 56.4613 199 55.36 199.746 54.128C200.008 53.68 200.269 52.9146 200.53 51.832C200.792 50.712 201.053 49.536 201.314 48.304C201.576 47.072 201.837 45.8773 202.098 44.72C202.36 43.5626 202.621 42.704 202.882 42.144C203.032 41.8453 203.274 41.696 203.61 41.696C203.946 41.6586 204.282 41.7146 204.618 41.864C204.954 42.0133 205.234 42.2373 205.458 42.536C205.72 42.7973 205.813 43.0586 205.738 43.32C205.589 43.88 205.402 44.6826 205.178 45.728C204.954 46.736 204.712 47.8746 204.45 49.144C204.226 50.376 204.002 51.6826 203.778 53.064C203.592 54.408 203.424 55.7146 203.274 56.984C203.125 58.216 203.013 59.336 202.938 60.344C202.901 61.352 202.938 62.136 203.05 62.696C203.312 64.264 203.797 65.1413 204.506 65.328C205.216 65.5146 205.906 65.0293 206.578 63.872C207.064 63.088 207.586 61.9866 208.146 60.568C208.744 59.1866 209.341 57.7493 209.938 56.256C210.573 54.7253 211.208 53.2506 211.842 51.832C212.477 50.376 213.074 49.2186 213.634 48.36C213.746 48.1733 213.877 48.08 214.026 48.08C214.176 48.0426 214.306 48.08 214.418 48.192C214.53 48.2666 214.605 48.3786 214.642 48.528C214.717 48.6773 214.698 48.8266 214.586 48.976C214.064 49.76 213.485 50.8426 212.85 52.224C212.216 53.6053 211.581 55.0426 210.946 56.536C210.312 58.0293 209.696 59.448 209.098 60.792C208.538 62.1733 208.053 63.256 207.642 64.04C207.045 65.16 206.28 65.8693 205.346 66.168C204.45 66.504 203.592 66.3173 202.77 65.608C201.986 64.936 201.37 63.6853 200.922 61.856C200.474 60.0266 200.418 57.5253 200.754 54.352C200.53 55.0986 200.213 55.808 199.802 56.48C199.392 57.152 198.944 57.768 198.458 58.328C198.01 58.8506 197.544 59.2986 197.058 59.672C196.61 60.0453 196.2 60.3066 195.826 60.456C194.37 61.016 193.082 60.736 191.962 59.616C190.88 58.5333 190.301 56.7226 190.226 54.184C190.226 53.624 190.264 52.9333 190.338 52.112C190.413 51.2906 190.525 50.4693 190.674 49.648C190.786 48.8266 190.917 48.0426 191.066 47.296C191.216 46.5493 191.384 45.952 191.57 45.504C191.682 45.2053 191.906 45 192.242 44.888C192.616 44.776 192.97 44.7573 193.306 44.832C193.642 44.8693 193.922 44.9813 194.146 45.168C194.37 45.3173 194.445 45.504 194.37 45.728Z" fill="white"/>
    <path d="M216.504 46.736C216.318 47.408 216.112 48.304 215.888 49.424C215.702 50.5066 215.515 51.664 215.328 52.896C215.179 54.0906 215.067 55.304 214.992 56.536C214.918 57.7306 214.936 58.7946 215.048 59.728C215.198 60.8853 215.44 61.688 215.776 62.136C216.112 62.584 216.504 62.752 216.952 62.64C217.4 62.5653 217.867 62.248 218.352 61.688C218.875 61.1653 219.379 60.4746 219.864 59.616C220.387 58.72 220.928 57.712 221.488 56.592C222.048 55.4346 222.608 54.3146 223.168 53.232C223.728 52.1493 224.288 51.1413 224.848 50.208C225.408 49.2373 225.95 48.4906 226.472 47.968C226.734 47.6693 226.995 47.6506 227.256 47.912C227.518 48.136 227.518 48.36 227.256 48.584C226.734 49.1066 226.211 49.816 225.688 50.712C225.166 51.608 224.624 52.5973 224.064 53.68C223.542 54.7253 223 55.8266 222.44 56.984C221.88 58.104 221.32 59.1493 220.76 60.12C219.976 61.5386 219.136 62.5466 218.24 63.144C217.344 63.7786 216.486 64.0586 215.664 63.984C214.843 63.9093 214.115 63.4986 213.48 62.752C212.846 62.0426 212.416 61.0346 212.192 59.728C212.006 58.72 211.968 57.6 212.08 56.368C212.155 55.0986 212.304 53.848 212.528 52.616C212.752 51.384 213.014 50.2266 213.312 49.144C213.611 48.0613 213.872 47.1466 214.096 46.4C214.208 46.1013 214.395 45.896 214.656 45.784C214.955 45.672 215.254 45.6533 215.552 45.728C215.851 45.7653 216.094 45.8773 216.28 46.064C216.504 46.2506 216.579 46.4746 216.504 46.736ZM216.504 38.784C216.878 39.0826 217.027 39.7733 216.952 40.856C216.952 41.2293 216.878 41.584 216.728 41.92C216.616 42.256 216.467 42.4986 216.28 42.648C216.131 42.7973 215.944 42.8346 215.72 42.76C215.496 42.648 215.291 42.368 215.104 41.92C215.067 41.808 214.899 41.528 214.6 41.08C214.339 40.5946 214.152 40.128 214.04 39.68C213.891 39.232 213.966 38.896 214.264 38.672C214.563 38.4106 215.03 38.336 215.664 38.448C216.038 38.5226 216.318 38.6346 216.504 38.784Z" fill="white"/>
    <path d="M229.133 43.376C228.76 44.496 228.629 45.616 228.741 46.736C229.339 46.4373 229.936 46.064 230.533 45.616C231.541 44.9066 232.344 44.1226 232.941 43.264C233.837 41.9946 234.229 41.024 234.117 40.352C234.005 39.6426 233.651 39.2693 233.053 39.232C232.493 39.1946 231.821 39.512 231.037 40.184C230.253 40.856 229.619 41.92 229.133 43.376ZM228.909 47.8C229.208 49.1813 229.731 50.544 230.477 51.888C231.261 53.232 232.027 54.6133 232.773 56.032C234.453 54.6133 236.115 53.232 237.757 51.888C239.437 50.5066 241.061 49.2186 242.629 48.024C242.965 47.8 243.227 47.8186 243.413 48.08C243.637 48.3413 243.6 48.6026 243.301 48.864C241.733 50.0586 240.091 51.3466 238.373 52.728C236.656 54.1093 234.957 55.528 233.277 56.984C233.427 57.2826 233.557 57.5626 233.669 57.824C233.819 58.0853 233.949 58.3653 234.061 58.664C234.397 59.4106 234.677 60.1386 234.901 60.848C235.312 62.192 235.461 63.592 235.349 65.048C235.275 66.504 235.013 67.9226 234.565 69.304C234.155 70.5733 233.613 71.7493 232.941 72.832C232.269 73.952 231.56 74.8853 230.813 75.632C229.059 77.3866 227.416 78.432 225.885 78.768C224.317 79.104 223.085 78.88 222.189 78.096C221.293 77.312 220.827 76.024 220.789 74.232C220.752 72.44 221.387 70.2933 222.693 67.792C223.552 66.1493 224.56 64.5813 225.717 63.088C226.875 61.632 228.293 60.12 229.973 58.552L230.421 58.16C229.899 57.0026 229.339 55.8826 228.741 54.8C228.144 53.68 227.64 52.5413 227.229 51.384C226.819 50.1893 226.557 48.9386 226.445 47.632C226.333 46.3253 226.501 44.888 226.949 43.32C227.248 42.1626 227.752 41.1733 228.461 40.352C229.171 39.5306 229.824 38.9333 230.421 38.56C231.243 38.0373 232.008 37.8133 232.717 37.888C233.464 37.9253 234.043 38.1866 234.453 38.672C234.864 39.12 235.069 39.7546 235.069 40.576C235.069 41.36 234.771 42.2186 234.173 43.152C233.725 43.8613 233.221 44.5146 232.661 45.112C232.101 45.672 231.597 46.12 231.149 46.456C230.365 46.9786 229.619 47.4266 228.909 47.8ZM229.189 74.176C229.787 73.3173 230.272 72.4213 230.645 71.488C231.056 70.592 231.373 69.7706 231.597 69.024C232.12 67.008 232.269 65.1973 232.045 63.592C231.821 62.024 231.429 60.5306 230.869 59.112L230.701 59.28C229.021 60.848 227.584 62.3973 226.389 63.928C225.195 65.4586 224.243 66.9146 223.533 68.296C222.413 70.4986 221.835 72.384 221.797 73.952C221.76 75.52 222.077 76.6213 222.749 77.256C223.421 77.8906 224.355 77.984 225.549 77.536C226.707 77.088 227.92 75.968 229.189 74.176Z" fill="white"/>
    <path d="M245.657 48.248C246.329 48.3226 247.001 48.248 247.673 48.024C248.382 47.8 248.998 47.3893 249.521 46.792C250.305 45.8586 250.659 45.112 250.585 44.552C250.51 43.992 250.211 43.7306 249.689 43.768C249.203 43.8053 248.569 44.1786 247.785 44.888C247.001 45.56 246.291 46.68 245.657 48.248ZM245.377 49.312C245.265 49.7226 245.153 50.2826 245.041 50.992C244.966 51.7013 244.929 52.4666 244.929 53.288C244.929 54.1093 244.985 54.9493 245.097 55.808C245.209 56.6293 245.395 57.376 245.657 58.048C245.955 58.72 246.329 59.2613 246.777 59.672C247.262 60.0826 247.859 60.2693 248.569 60.232C249.838 60.1573 250.958 59.616 251.929 58.608C252.899 57.6 253.758 56.4426 254.505 55.136C255.289 53.792 255.979 52.4666 256.577 51.16C257.174 49.816 257.697 48.7893 258.145 48.08C258.369 47.7066 258.593 47.6133 258.817 47.8C259.078 47.9866 259.134 48.2293 258.985 48.528C258.499 49.536 257.958 50.7306 257.361 52.112C256.763 53.4933 256.073 54.8373 255.289 56.144C254.505 57.4133 253.627 58.5333 252.657 59.504C251.686 60.512 250.585 61.128 249.353 61.352C248.158 61.576 247.113 61.52 246.217 61.184C245.358 60.848 244.611 60.3066 243.977 59.56C243.379 58.8133 242.913 57.936 242.577 56.928C242.241 55.92 242.035 54.8746 241.961 53.792C241.849 52.672 241.867 51.5706 242.017 50.488C242.166 49.4053 242.427 48.4346 242.801 47.576C243.286 46.3813 243.921 45.4106 244.705 44.664C245.489 43.88 246.291 43.32 247.113 42.984C247.934 42.648 248.718 42.4986 249.465 42.536C250.211 42.5733 250.79 42.7786 251.201 43.152C251.611 43.5253 251.798 44.0666 251.761 44.776C251.723 45.448 251.35 46.2506 250.641 47.184C250.006 48.0053 249.203 48.584 248.233 48.92C247.262 49.256 246.31 49.3866 245.377 49.312Z" fill="white"/>
    <defs>
        <linearGradient id="gradient" x1="0.18399" y1="24.5999" x2="318.596" y2="24.5999" gradientUnits="userSpaceOnUse">
            <stop class="main-accent" />
            <stop class="sub-accent" offset="1" />
        </linearGradient>
    </defs>
</svg>
