<svg viewBox="0 0 319 91" fill="none" xmlns="http://www.w3.org/2000/svg">
    <g fill="url(#gradient)">
        <path d="M0.18399 1.19994H12.568V18.6239H26.536V1.19994H38.92V47.9999H26.536V29.4239H12.568V47.9999H0.18399V1.19994Z" />
        <path d="M49.2621 1.19994H79.5021V11.5679H61.6461V18.9119H76.9101V29.2799H61.6461V37.6319H80.2221V47.9999H49.2621V1.19994Z" />
        <path d="M114.47 47.9999L106.406 32.3039H101.654V47.9999H89.2699V1.19994H106.982C112.598 1.19994 117.11 2.37594 120.518 4.72794C123.974 7.03194 125.702 10.8959 125.702 16.3199C125.702 19.5359 125.03 22.2719 123.686 24.5279C122.342 26.7839 120.494 28.5599 118.142 29.8559L128.294 47.9999H114.47ZM101.654 22.5119H106.118C108.566 22.5119 110.414 21.9839 111.662 20.9279C112.958 19.8719 113.606 18.3359 113.606 16.3199C113.606 14.3519 112.982 12.9839 111.734 12.2159C110.534 11.3999 108.662 10.9919 106.118 10.9919H101.654V22.5119Z" />
        <path d="M134.621 1.19994H147.869L154.925 20.3519C155.261 21.3119 155.717 22.7999 156.293 24.8159L157.373 28.5599H157.661L158.741 24.8159C159.317 22.7999 159.773 21.3119 160.109 20.3519L166.877 1.19994H180.125V47.9999H168.893V34.1759C168.893 32.3999 169.037 30.1199 169.325 27.3359C169.613 24.5039 169.925 21.8879 170.261 19.4879L170.477 17.4719H170.189L166.301 28.7039L160.541 44.1839H153.917L148.157 28.7039L144.413 17.4719H144.125L144.341 19.4879C144.677 21.8879 144.989 24.5039 145.277 27.3359C145.565 30.1199 145.709 32.3999 145.709 34.1759V47.9999H134.621V1.19994Z" />
        <path d="M210.248 48.8639C205.928 48.8639 202.112 47.9039 198.8 45.9839C195.536 44.0159 192.992 41.1839 191.168 37.4879C189.392 33.7919 188.504 29.4239 188.504 24.3839C188.504 19.3439 189.392 15.0239 191.168 11.4239C192.992 7.77594 195.536 5.01594 198.8 3.14394C202.112 1.27194 205.928 0.335938 210.248 0.335938C214.568 0.335938 218.36 1.29594 221.624 3.21594C224.936 5.08794 227.48 7.82394 229.256 11.4239C231.08 15.0239 231.992 19.3439 231.992 24.3839C231.992 29.4239 231.08 33.7919 229.256 37.4879C227.48 41.1839 224.936 44.0159 221.624 45.9839C218.36 47.9039 214.568 48.8639 210.248 48.8639ZM210.248 38.2079C213.032 38.2079 215.24 36.9839 216.872 34.5359C218.504 32.0399 219.32 28.6559 219.32 24.3839C219.32 20.1599 218.504 16.8719 216.872 14.5199C215.288 12.1679 213.08 10.9919 210.248 10.9919C207.416 10.9919 205.184 12.1679 203.552 14.5199C201.968 16.8719 201.176 20.1599 201.176 24.3839C201.176 28.6559 201.992 32.0399 203.624 34.5359C205.256 36.9839 207.464 38.2079 210.248 38.2079Z" />
        <path d="M255.203 48.8639C252.131 48.8639 249.011 48.3119 245.843 47.2079C242.723 46.0559 239.939 44.3759 237.491 42.1679L244.547 33.6719C246.227 35.0159 248.051 36.1199 250.019 36.9839C251.987 37.7999 253.811 38.2079 255.491 38.2079C259.043 38.2079 260.819 37.1039 260.819 34.8959C260.819 34.1759 260.579 33.5999 260.099 33.1679C259.619 32.6879 258.875 32.2319 257.867 31.7999C256.859 31.3199 255.731 30.8399 254.483 30.3599L248.651 27.9119C245.867 26.8079 243.587 25.1519 241.811 22.9439C240.083 20.7359 239.219 18.0479 239.219 14.8799C239.219 12.2399 239.963 9.81594 241.451 7.60794C242.939 5.35194 245.003 3.57594 247.643 2.27994C250.331 0.983938 253.331 0.335938 256.643 0.335938C259.427 0.335938 262.187 0.863938 264.923 1.91994C267.707 2.97594 270.131 4.53594 272.195 6.59994L266.003 14.3759C264.371 13.2239 262.811 12.3839 261.323 11.8559C259.883 11.2799 258.323 10.9919 256.643 10.9919C255.107 10.9919 253.907 11.2799 253.043 11.8559C252.179 12.3839 251.747 13.1519 251.747 14.1599C251.747 14.8799 252.011 15.4799 252.539 15.9599C253.067 16.4399 253.883 16.9199 254.987 17.3999C256.091 17.8799 257.315 18.3599 258.659 18.8399L264.348 21.0719C270.444 23.4719 273.491 27.7439 273.491 33.8879C273.491 36.5759 272.747 39.0719 271.259 41.3759C269.819 43.6319 267.707 45.4559 264.923 46.8479C262.187 48.1919 258.947 48.8639 255.203 48.8639Z" />
        <path d="M303.188 38.0639H290.084L287.78 47.9999H275.108L289.364 1.19994H304.34L318.596 47.9999H305.492L303.188 38.0639ZM300.956 28.4879L300.164 25.2479C299.54 22.7999 298.916 20.1119 298.292 17.1839L296.708 10.4159H296.42L295.988 12.4319C294.932 17.7119 293.972 21.9839 293.108 25.2479L292.316 28.4879H300.956Z" />
    </g>
    <g fill="var(--text-color)">
        <path d="M3.262 44.552C3.15 45.0373 3.038 45.7093 2.926 46.568C2.814 47.3893 2.702 48.2666 2.59 49.2C2.51533 50.096 2.44067 50.9733 2.366 51.832C2.29133 52.6906 2.254 53.3813 2.254 53.904C2.21667 54.8 2.31 55.192 2.534 55.08C2.758 54.9306 2.96333 54.4826 3.15 53.736C3.262 53.288 3.41133 52.6906 3.598 51.944C3.78467 51.1973 3.99 50.4506 4.214 49.704C4.47533 48.92 4.73667 48.192 4.998 47.52C5.29667 46.848 5.59533 46.3253 5.894 45.952C6.30467 45.5413 6.86467 45.2986 7.574 45.224C8.28333 45.112 8.82467 45.3173 9.198 45.84C9.38467 46.1386 9.534 46.5866 9.646 47.184C9.79533 47.7813 9.88867 48.4346 9.926 49.144C10.0007 49.816 10.038 50.4693 10.038 51.104C10.0753 51.7386 10.094 52.224 10.094 52.56C10.094 52.784 10.1313 52.84 10.206 52.728C10.2807 52.5786 10.3367 52.4666 10.374 52.392C10.6353 51.608 10.9713 50.6746 11.382 49.592C11.83 48.5093 12.334 47.3706 12.894 46.176C13.454 44.9813 14.07 43.8053 14.742 42.648C15.4513 41.4533 16.198 40.3893 16.982 39.456C17.9527 38.336 18.8487 37.6266 19.67 37.328C20.5287 36.992 21.238 36.992 21.798 37.328C22.358 37.664 22.7313 38.3173 22.918 39.288C23.1047 40.2213 23.0487 41.3973 22.75 42.816C22.414 44.3466 22.0407 45.952 21.63 47.632C21.2567 49.2746 20.902 50.9546 20.566 52.672C20.23 54.352 19.9313 56.032 19.67 57.712C19.446 59.3546 19.334 60.96 19.334 62.528C19.334 63.76 19.3713 64.8053 19.446 65.664C19.5207 66.5226 19.6887 67.0453 19.95 67.232C20.2113 67.4186 20.5473 67.2133 20.958 66.616C21.406 66.056 21.966 64.992 22.638 63.424C23.0113 62.528 23.4967 61.3333 24.094 59.84C24.6913 58.384 25.3447 56.8906 26.054 55.36C26.8007 53.792 27.566 52.3173 28.35 50.936C29.134 49.5546 29.918 48.5093 30.702 47.8C31.0007 47.5386 31.2247 47.52 31.374 47.744C31.5233 47.968 31.486 48.2293 31.262 48.528C30.4033 49.5733 29.6007 50.7866 28.854 52.168C28.1073 53.5493 27.398 54.9493 26.726 56.368C26.0913 57.7493 25.5127 59.0746 24.99 60.344C24.5047 61.6506 24.0753 62.7333 23.702 63.592C22.8807 65.5333 22.134 66.8586 21.462 67.568C20.8273 68.3146 20.1367 68.688 19.39 68.688C18.4193 68.688 17.6727 68.0906 17.15 66.896C16.6273 65.7013 16.4407 64.1333 16.59 62.192C16.8887 58.6826 17.3367 55.36 17.934 52.224C18.5313 49.088 19.2967 45.8026 20.23 42.368C20.6033 40.912 20.734 39.8853 20.622 39.288C20.5473 38.6906 20.3047 38.4106 19.894 38.448C19.5207 38.4853 19.0353 38.784 18.438 39.344C17.8407 39.8666 17.2433 40.5573 16.646 41.416C16.1233 42.1626 15.582 43.0586 15.022 44.104C14.462 45.112 13.9207 46.176 13.398 47.296C12.9127 48.416 12.4647 49.536 12.054 50.656C11.6433 51.7386 11.3073 52.728 11.046 53.624C10.8593 54.3333 10.654 54.8933 10.43 55.304C10.2433 55.6773 9.83267 55.8826 9.198 55.92C8.974 55.92 8.75 55.8453 8.526 55.696C8.302 55.5466 8.15267 55.2106 8.078 54.688C8.04067 54.352 8.00333 53.904 7.966 53.344C7.966 52.784 7.966 52.2053 7.966 51.608C7.966 50.9733 7.94733 50.376 7.91 49.816C7.87267 49.2186 7.83533 48.752 7.798 48.416C7.72333 48.0053 7.49933 47.6693 7.126 47.408C6.79 47.1466 6.41667 47.296 6.006 47.856C5.70733 48.304 5.39 49.0506 5.054 50.096C4.75533 51.104 4.47533 52.168 4.214 53.288C3.99 54.408 3.78467 55.4346 3.598 56.368C3.41133 57.3013 3.29933 57.8613 3.262 58.048C3.18733 58.4213 3.00067 58.608 2.702 58.608C2.29133 58.5706 1.862 58.496 1.414 58.384C0.966 58.2346 0.667333 58.0666 0.518 57.88C0.219333 57.544 0.0513333 56.7413 0.014 55.472C-0.0233333 54.1653 0.014 52.7653 0.126 51.272C0.200667 49.7786 0.312667 48.36 0.462 47.016C0.611333 45.672 0.723333 44.776 0.798 44.328C0.835333 44.104 0.984667 43.9546 1.246 43.88C1.54467 43.768 1.84333 43.7306 2.142 43.768C2.478 43.768 2.758 43.8426 2.982 43.992C3.206 44.104 3.29933 44.2906 3.262 44.552Z" />
        <path d="M52.4882 40.52C53.0482 37.9066 53.3469 35.648 53.3842 33.744C53.4215 31.8026 53.3469 30.1226 53.1602 28.704C52.8615 26.576 52.3575 25.0266 51.6482 24.056C50.9389 23.048 50.1549 22.488 49.2962 22.376C48.4375 22.264 47.5789 22.5066 46.7202 23.104C45.8615 23.7013 45.1335 24.5413 44.5362 25.624C43.9762 26.6693 43.6029 27.8826 43.4162 29.264C43.2669 30.608 43.4535 31.9706 43.9762 33.352C44.4989 34.7333 45.4322 36.0586 46.7762 37.328C48.1202 38.5973 50.0242 39.6613 52.4882 40.52ZM39.8322 46.736C38.7869 45.4666 37.7415 44.832 36.6962 44.832C36.0242 44.832 35.4082 45.168 34.8482 45.84C34.2882 46.512 33.8215 47.352 33.4482 48.36C33.0749 49.3306 32.7762 50.3946 32.5522 51.552C32.3282 52.7093 32.1975 53.792 32.1602 54.8C32.1602 55.7706 32.2535 56.5733 32.4402 57.208C32.6642 57.8426 32.9815 58.16 33.3922 58.16C33.5789 58.1226 33.8029 58.0293 34.0642 57.88C34.3629 57.6933 34.7175 57.3386 35.1282 56.816C35.5015 56.2933 35.9122 55.584 36.3602 54.688C36.8082 53.792 37.2375 52.8586 37.6482 51.888C38.0589 50.9173 38.4509 49.984 38.8242 49.088C39.1975 48.1546 39.5335 47.3706 39.8322 46.736ZM37.4802 43.936C38.4882 44.2346 39.4402 44.8506 40.3362 45.784C40.4109 45.5973 40.5042 45.4293 40.6162 45.28C40.7282 45.1306 40.8215 44.9813 40.8962 44.832C41.0455 44.5706 41.2509 44.4586 41.5122 44.496C41.7735 44.496 42.0349 44.5893 42.2962 44.776C42.5575 44.9626 42.7629 45.2053 42.9122 45.504C43.0615 45.8026 43.0989 46.0826 43.0242 46.344C42.9495 46.6426 42.7255 47.3146 42.3522 48.36C42.0162 49.4053 41.6429 50.5813 41.2322 51.888C40.8215 53.1946 40.4482 54.5386 40.1122 55.92C39.8135 57.264 39.6455 58.384 39.6082 59.28C39.6082 60.064 39.6642 60.7546 39.7762 61.352C39.9255 61.9866 40.1122 62.472 40.3362 62.808C40.5975 63.144 40.8962 63.2933 41.2322 63.256C41.6055 63.256 41.9975 63.032 42.4082 62.584C42.8189 62.136 43.3229 61.3893 43.9202 60.344C44.5175 59.2986 45.1522 58.104 45.8242 56.76C46.5335 55.416 47.2242 53.9786 47.8962 52.448C48.6055 50.9173 49.2589 49.4426 49.8562 48.024C50.4535 46.6053 50.9575 45.3173 51.3682 44.16C51.8162 43.0026 52.1335 42.1253 52.3202 41.528C49.4455 40.4826 47.2242 39.2506 45.6562 37.832C44.1255 36.4133 43.0802 34.9386 42.5202 33.408C41.9602 31.84 41.7922 30.3093 42.0162 28.816C42.2775 27.3226 42.7629 25.9973 43.4722 24.84C44.2189 23.6453 45.1149 22.712 46.1602 22.04C47.2055 21.3306 48.2509 21.032 49.2962 21.144C50.3789 21.2186 51.3495 21.76 52.2082 22.768C53.1042 23.7386 53.7575 25.3253 54.1682 27.528C54.4669 29.096 54.5789 30.9813 54.5042 33.184C54.4295 35.3493 54.0935 37.888 53.4962 40.8L54.5042 41.136C55.7735 41.584 56.7815 42.088 57.5282 42.648C58.3122 43.208 58.5735 43.8986 58.3122 44.72C58.0882 45.3173 57.8082 46.1573 57.4722 47.24C57.1362 48.2853 56.7815 49.4426 56.4082 50.712C56.0349 51.9813 55.6615 53.2693 55.2882 54.576C54.9149 55.8453 54.5975 57.0026 54.3362 58.048C54.0002 59.3546 53.7015 60.7173 53.4402 62.136C53.1789 63.5546 53.1415 64.936 53.3282 66.28C53.5522 67.96 54.0375 68.7813 54.7842 68.744C55.5682 68.744 56.3895 67.96 57.2482 66.392C57.6215 65.72 58.1442 64.6 58.8162 63.032C59.5255 61.5013 60.2909 59.8213 61.1122 57.992C61.9709 56.1626 62.8669 54.3706 63.8002 52.616C64.7335 50.824 65.6295 49.3493 66.4882 48.192C66.6375 48.0053 66.7869 47.8933 66.9362 47.856C67.0855 47.7813 67.2162 47.7813 67.3282 47.856C67.4402 47.8933 67.5149 47.9866 67.5522 48.136C67.5895 48.248 67.5335 48.3973 67.3842 48.584C66.4135 49.8533 65.4802 51.3653 64.5842 53.12C63.6882 54.8746 62.8482 56.648 62.0642 58.44C61.2802 60.232 60.5522 61.912 59.8802 63.48C59.2455 65.0853 58.7042 66.336 58.2562 67.232C57.6962 68.24 57.0989 68.9866 56.4642 69.472C55.8295 69.9573 55.1949 70.1813 54.5602 70.144C53.9255 70.144 53.3282 69.9013 52.7682 69.416C52.2455 68.9306 51.8162 68.2586 51.4802 67.4C50.8455 65.72 50.6215 63.984 50.8082 62.192C50.9949 60.4373 51.2935 58.72 51.7042 57.04C51.9282 56.0693 52.2082 55.024 52.5442 53.904C52.8802 52.7466 53.1975 51.6266 53.4962 50.544C53.8322 49.424 54.1309 48.3786 54.3922 47.408C54.6909 46.4373 54.9335 45.6346 55.1202 45C55.1949 44.776 55.2509 44.5333 55.2882 44.272C55.3629 44.0106 55.3815 43.7493 55.3442 43.488C55.3069 43.1893 55.1949 42.928 55.0082 42.704C54.8589 42.48 54.5789 42.2746 54.1682 42.088C54.0189 42.0133 53.8695 41.976 53.7202 41.976C53.6082 41.9386 53.4589 41.8826 53.2722 41.808C53.1229 42.4426 52.8055 43.3573 52.3202 44.552C51.8722 45.7466 51.3309 47.0906 50.6962 48.584C50.0615 50.04 49.3709 51.5706 48.6242 53.176C47.8775 54.7813 47.1309 56.2933 46.3842 57.712C45.6749 59.0933 44.9842 60.3066 44.3122 61.352C43.6775 62.3973 43.1362 63.1066 42.6882 63.48C42.1282 63.9653 41.5495 64.2453 40.9522 64.32C40.3922 64.3946 39.8695 64.32 39.3842 64.096C38.9362 63.872 38.5442 63.5546 38.2082 63.144C37.9095 62.7333 37.7042 62.2853 37.5922 61.8C37.4055 60.904 37.3495 59.9706 37.4242 59C37.5362 57.992 37.7042 56.984 37.9282 55.976C38.1522 54.968 38.4135 53.9786 38.7122 53.008C39.0109 52 39.2722 51.048 39.4962 50.152C39.3469 50.5626 39.1229 51.104 38.8242 51.776C38.5255 52.448 38.2082 53.1573 37.8722 53.904C37.5362 54.6133 37.1815 55.304 36.8082 55.976C36.4722 56.6106 36.1735 57.096 35.9122 57.432C35.4642 57.992 34.9789 58.4213 34.4562 58.72C33.9335 59.0186 33.3922 59.1493 32.8322 59.112C32.3095 59.112 31.7869 58.944 31.2642 58.608C30.7789 58.272 30.3682 57.768 30.0322 57.096C29.6962 56.424 29.5095 55.584 29.4722 54.576C29.4349 53.568 29.5095 52.5413 29.6962 51.496C29.8829 50.4133 30.2002 49.368 30.6482 48.36C31.0589 47.3146 31.5815 46.4186 32.2162 45.672C32.8882 44.888 33.6535 44.328 34.5122 43.992C35.4082 43.656 36.3975 43.6373 37.4802 43.936Z" />
        <path d="M64.8445 68.464C66.4498 66.672 68.2605 64.936 70.2765 63.256C72.3298 61.6133 74.3458 60.1386 76.3245 58.832C76.3992 57.824 76.4365 57.0213 76.4365 56.424C76.4738 55.8266 76.4925 55.3226 76.4925 54.912C76.5298 54.464 76.5485 54.0906 76.5485 53.792C76.5485 53.456 76.5672 53.064 76.6045 52.616C76.6792 51.384 76.6418 50.6373 76.4925 50.376C76.3432 50.0773 76.0258 50.4506 75.5405 51.496C75.1298 52.4293 74.7005 53.344 74.2525 54.24C73.8045 55.136 73.3378 55.9013 72.8525 56.536C72.4792 57.096 72.1058 57.5626 71.7325 57.936C71.3592 58.272 70.9858 58.5333 70.6125 58.72C69.9778 59.056 69.3992 59.168 68.8765 59.056C68.3912 58.944 67.9432 58.72 67.5325 58.384C67.1592 58.0106 66.8418 57.5626 66.5805 57.04C66.3192 56.5173 66.1325 56.0133 66.0205 55.528C65.6098 53.9226 65.5538 52.2426 65.8525 50.488C66.1512 48.696 66.6738 47.0346 67.4205 45.504C67.5698 45.2053 67.8312 44.9813 68.2045 44.832C68.6152 44.6826 68.9885 44.6266 69.3245 44.664C69.6978 44.664 69.9778 44.776 70.1645 45C70.3512 45.1866 70.3325 45.4853 70.1085 45.896C69.5112 46.9786 69.0632 48.2293 68.7645 49.648C68.4658 51.0293 68.3165 52.3546 68.3165 53.624C68.3165 54.856 68.4472 55.9013 68.7085 56.76C68.9698 57.6186 69.3805 58.0106 69.9405 57.936C70.6125 57.6746 71.3218 57.0213 72.0685 55.976C72.4792 55.3413 72.8898 54.6133 73.3005 53.792C73.7485 52.9333 74.1965 52.0373 74.6445 51.104C75.0178 50.2826 75.2978 49.536 75.4845 48.864C75.6712 48.192 75.8952 47.5946 76.1565 47.072C76.3805 46.624 76.7538 46.344 77.2765 46.232C77.8365 46.12 78.2098 46.3813 78.3965 47.016C78.5832 47.7253 78.7325 48.5466 78.8445 49.48C78.9938 50.376 79.1058 51.2906 79.1805 52.224C79.2925 53.1573 79.3485 54.072 79.3485 54.968C79.3858 55.8266 79.3672 56.5546 79.2925 57.152C80.4125 56.2933 81.3272 55.5093 82.0365 54.8C82.7832 54.0906 83.4365 53.4 83.9965 52.728C84.5565 52.056 85.0792 51.3466 85.5645 50.6C86.0872 49.8533 86.7032 48.9946 87.4125 48.024C87.4872 47.912 87.5992 47.8373 87.7485 47.8C87.8978 47.7626 88.0285 47.7626 88.1405 47.8C88.2898 47.8373 88.3832 47.9306 88.4205 48.08C88.4578 48.192 88.4205 48.3413 88.3085 48.528C87.5245 49.6853 86.8338 50.6746 86.2365 51.496C85.6392 52.3173 85.0232 53.1013 84.3885 53.848C83.7912 54.5573 83.1005 55.2666 82.3165 55.976C81.5325 56.6853 80.5432 57.488 79.3485 58.384C79.3112 59.9146 79.1992 61.5573 79.0125 63.312C78.8632 65.0666 78.6205 66.8586 78.2845 68.688C77.9858 70.5546 77.5938 72.4213 77.1085 74.288C76.6232 76.1546 76.0445 77.984 75.3725 79.776C74.2898 82.5386 73.0952 84.7413 71.7885 86.384C70.4818 88.064 69.1565 89.2586 67.8125 89.968C66.5058 90.6773 65.2365 90.9573 64.0045 90.808C62.7725 90.6586 61.7085 90.1733 60.8125 89.352C59.8792 88.5306 59.1885 87.4106 58.7405 85.992C58.2925 84.6106 58.1805 83.0053 58.4045 81.176C58.6285 79.3466 59.2445 77.3493 60.2525 75.184C61.2605 73.0186 62.7912 70.7786 64.8445 68.464ZM72.7405 78.656C73.1138 77.4986 73.4872 76.2106 73.8605 74.792C74.2338 73.3733 74.5698 71.8613 74.8685 70.256C75.2045 68.6506 75.4845 66.9893 75.7085 65.272C75.9698 63.5546 76.1565 61.8186 76.2685 60.064C74.3645 61.296 72.4605 62.696 70.5565 64.264C68.6898 65.8693 66.9725 67.568 65.4045 69.36C63.6498 71.376 62.3245 73.336 61.4285 75.24C60.4952 77.1813 59.8978 78.9733 59.6365 80.616C59.3378 82.2586 59.3378 83.7146 59.6365 84.984C59.9352 86.2533 60.4205 87.2613 61.0925 88.008C61.7645 88.7546 62.5858 89.184 63.5565 89.296C64.4898 89.408 65.4792 89.1093 66.5245 88.4C67.6072 87.728 68.6898 86.5893 69.7725 84.984C70.8552 83.416 71.8445 81.3066 72.7405 78.656Z" />
        <path d="M106.675 44.216C108.504 42.7226 110.221 41.0053 111.827 39.064C113.432 37.1226 114.888 35.1066 116.195 33.016C117.725 30.6266 118.789 28.4613 119.387 26.52C120.021 24.5786 120.301 22.9733 120.227 21.704C120.152 20.4346 119.797 19.5573 119.163 19.072C118.565 18.5866 117.781 18.624 116.811 19.184C115.877 19.7066 114.851 20.808 113.731 22.488C112.611 24.1306 111.509 26.464 110.427 29.488C109.493 32.064 108.728 34.6213 108.131 37.16C107.533 39.6613 107.048 42.0133 106.675 44.216ZM104.211 56.984C103.912 55.08 103.781 53.008 103.819 50.768C103.819 48.528 103.968 46.2133 104.267 43.824C104.603 41.3973 105.069 38.9333 105.667 36.432C106.301 33.9306 107.085 31.4666 108.019 29.04C109.251 25.8293 110.576 23.328 111.995 21.536C113.451 19.7066 114.813 18.4933 116.083 17.896C117.389 17.2986 118.528 17.2426 119.499 17.728C120.469 18.2133 121.085 19.1466 121.347 20.528C121.608 21.9093 121.44 23.72 120.843 25.96C120.245 28.1626 119.032 30.664 117.203 33.464C115.859 35.5173 114.328 37.5706 112.611 39.624C110.931 41.64 108.933 43.5626 106.619 45.392C106.432 47.744 106.32 49.7973 106.283 51.552C106.245 53.2693 106.32 55.0053 106.507 56.76C106.731 58.776 107.104 60.3813 107.627 61.576C108.187 62.808 108.877 63.536 109.699 63.76C110.52 63.984 111.435 63.648 112.443 62.752C113.488 61.856 114.627 60.3253 115.859 58.16C116.755 56.592 117.632 54.9866 118.491 53.344C119.349 51.664 120.227 49.928 121.123 48.136C121.272 47.8373 121.515 47.744 121.851 47.856C122.187 47.9306 122.261 48.1546 122.075 48.528C121.216 50.32 120.357 52.056 119.499 53.736C118.677 55.3786 117.837 56.9653 116.979 58.496C115.672 60.8106 114.459 62.528 113.339 63.648C112.219 64.8053 111.061 65.3653 109.867 65.328C109.269 65.328 108.672 65.16 108.075 64.824C107.515 64.5253 106.973 64.04 106.451 63.368C105.965 62.696 105.517 61.8373 105.107 60.792C104.733 59.7466 104.435 58.4773 104.211 56.984Z" />
        <path d="M119.931 50.04C120.117 49.704 120.323 49.368 120.547 49.032C120.771 48.6586 120.995 48.3226 121.219 48.024C121.592 47.576 121.984 47.3333 122.395 47.296C122.843 47.2586 123.197 47.352 123.459 47.576C123.757 47.8 123.925 48.1173 123.963 48.528C124 48.9386 123.832 49.3866 123.459 49.872C123.272 50.0586 123.085 50.2826 122.899 50.544C122.749 50.768 122.6 50.992 122.451 51.216C123.048 51.4026 123.776 51.608 124.635 51.832C125.493 52.0186 126.259 52.1493 126.931 52.224C126.819 51.552 126.613 50.8613 126.315 50.152C126.053 49.4426 125.717 48.7893 125.307 48.192C124.933 47.5573 124.485 47.016 123.963 46.568C123.477 46.0826 122.936 45.7466 122.339 45.56C121.555 45.336 120.789 45.2986 120.043 45.448C119.259 45.56 118.68 45.84 118.307 46.288C117.896 46.6986 117.784 47.24 117.971 47.912C118.157 48.5466 118.811 49.256 119.931 50.04ZM121.555 52.392C120.733 53.6613 120.211 54.856 119.987 55.976C119.725 57.096 119.669 58.0853 119.819 58.944C119.931 59.7653 120.211 60.456 120.659 61.016C121.069 61.6133 121.536 62.0053 122.059 62.192C122.619 62.3786 123.179 62.36 123.739 62.136C124.336 61.9493 124.84 61.5013 125.251 60.792C125.549 60.3066 125.811 59.728 126.035 59.056C126.296 58.384 126.501 57.712 126.651 57.04C126.837 56.3306 126.968 55.6586 127.043 55.024C127.117 54.3893 127.136 53.8666 127.099 53.456C126.315 53.456 125.4 53.3626 124.355 53.176C123.347 52.952 122.413 52.6906 121.555 52.392ZM121.723 44.608C122.656 44.7573 123.515 45.0746 124.299 45.56C125.12 46.0453 125.848 46.6426 126.483 47.352C127.155 48.0613 127.715 48.8453 128.163 49.704C128.648 50.5253 129.003 51.3653 129.227 52.224C130.645 52.112 131.915 51.72 133.035 51.048C134.192 50.376 135.275 49.4053 136.283 48.136C136.469 47.8746 136.712 47.8373 137.011 48.024C137.309 48.2106 137.347 48.4533 137.123 48.752C136.077 50.0586 134.92 51.0666 133.651 51.776C132.381 52.4853 130.963 52.9706 129.395 53.232C129.581 54.4266 129.544 55.6586 129.283 56.928C129.021 58.1973 128.573 59.3173 127.939 60.288C127.155 61.5573 126.296 62.416 125.363 62.864C124.467 63.312 123.571 63.4426 122.675 63.256C121.816 63.1066 121.032 62.6586 120.323 61.912C119.576 61.2026 119.016 60.3066 118.643 59.224C118.232 58.1413 118.064 56.9093 118.139 55.528C118.176 54.1466 118.531 52.728 119.203 51.272C118.12 50.5626 117.429 49.7786 117.131 48.92C116.832 48.0613 116.832 47.296 117.131 46.624C117.429 45.9146 117.989 45.3546 118.811 44.944C119.632 44.5333 120.603 44.4213 121.723 44.608Z" />
        <path d="M139.776 45.728C139.59 46.176 139.403 46.7546 139.216 47.464C139.03 48.136 138.843 48.864 138.656 49.648C138.507 50.432 138.376 51.1973 138.264 51.944C138.19 52.6906 138.152 53.344 138.152 53.904C138.115 55.0986 138.171 56.088 138.32 56.872C138.47 57.6186 138.675 58.216 138.936 58.664C139.235 59.0746 139.552 59.3173 139.888 59.392C140.262 59.504 140.635 59.4853 141.008 59.336C141.718 59.0373 142.39 58.4026 143.024 57.432C143.696 56.4613 144.406 55.36 145.152 54.128C145.414 53.68 145.675 52.9146 145.936 51.832C146.198 50.712 146.459 49.536 146.72 48.304C146.982 47.072 147.243 45.8773 147.504 44.72C147.766 43.5626 148.027 42.704 148.288 42.144C148.438 41.8453 148.68 41.696 149.016 41.696C149.352 41.6586 149.688 41.7146 150.024 41.864C150.36 42.0133 150.64 42.2373 150.864 42.536C151.126 42.7973 151.219 43.0586 151.144 43.32C150.995 43.88 150.808 44.6826 150.584 45.728C150.36 46.736 150.118 47.8746 149.856 49.144C149.632 50.376 149.408 51.6826 149.184 53.064C148.998 54.408 148.83 55.7146 148.68 56.984C148.531 58.216 148.419 59.336 148.344 60.344C148.307 61.352 148.344 62.136 148.456 62.696C148.718 64.264 149.203 65.1413 149.912 65.328C150.622 65.5146 151.312 65.0293 151.984 63.872C152.47 63.088 152.992 61.9866 153.552 60.568C154.15 59.1866 154.747 57.7493 155.344 56.256C155.979 54.7253 156.614 53.2506 157.248 51.832C157.883 50.376 158.48 49.2186 159.04 48.36C159.152 48.1733 159.283 48.08 159.432 48.08C159.582 48.0426 159.712 48.08 159.824 48.192C159.936 48.2666 160.011 48.3786 160.048 48.528C160.123 48.6773 160.104 48.8266 159.992 48.976C159.47 49.76 158.891 50.8426 158.256 52.224C157.622 53.6053 156.987 55.0426 156.352 56.536C155.718 58.0293 155.102 59.448 154.504 60.792C153.944 62.1733 153.459 63.256 153.048 64.04C152.451 65.16 151.686 65.8693 150.752 66.168C149.856 66.504 148.998 66.3173 148.176 65.608C147.392 64.936 146.776 63.6853 146.328 61.856C145.88 60.0266 145.824 57.5253 146.16 54.352C145.936 55.0986 145.619 55.808 145.208 56.48C144.798 57.152 144.35 57.768 143.864 58.328C143.416 58.8506 142.95 59.2986 142.464 59.672C142.016 60.0453 141.606 60.3066 141.232 60.456C139.776 61.016 138.488 60.736 137.368 59.616C136.286 58.5333 135.707 56.7226 135.632 54.184C135.632 53.624 135.67 52.9333 135.744 52.112C135.819 51.2906 135.931 50.4693 136.08 49.648C136.192 48.8266 136.323 48.0426 136.472 47.296C136.622 46.5493 136.79 45.952 136.976 45.504C137.088 45.2053 137.312 45 137.648 44.888C138.022 44.776 138.376 44.7573 138.712 44.832C139.048 44.8693 139.328 44.9813 139.552 45.168C139.776 45.3173 139.851 45.504 139.776 45.728Z" />
        <path d="M161.91 46.736C161.724 47.408 161.518 48.304 161.294 49.424C161.108 50.5066 160.921 51.664 160.734 52.896C160.585 54.0906 160.473 55.304 160.398 56.536C160.324 57.7306 160.342 58.7946 160.454 59.728C160.604 60.8853 160.846 61.688 161.182 62.136C161.518 62.584 161.91 62.752 162.358 62.64C162.806 62.5653 163.273 62.248 163.758 61.688C164.281 61.1653 164.785 60.4746 165.27 59.616C165.793 58.72 166.334 57.712 166.894 56.592C167.454 55.4346 168.014 54.3146 168.574 53.232C169.134 52.1493 169.694 51.1413 170.254 50.208C170.814 49.2373 171.356 48.4906 171.878 47.968C172.14 47.6693 172.401 47.6506 172.662 47.912C172.924 48.136 172.924 48.36 172.662 48.584C172.14 49.1066 171.617 49.816 171.094 50.712C170.572 51.608 170.03 52.5973 169.47 53.68C168.948 54.7253 168.406 55.8266 167.846 56.984C167.286 58.104 166.726 59.1493 166.166 60.12C165.382 61.5386 164.542 62.5466 163.646 63.144C162.75 63.7786 161.892 64.0586 161.07 63.984C160.249 63.9093 159.521 63.4986 158.886 62.752C158.252 62.0426 157.822 61.0346 157.598 59.728C157.412 58.72 157.374 57.6 157.486 56.368C157.561 55.0986 157.71 53.848 157.934 52.616C158.158 51.384 158.42 50.2266 158.718 49.144C159.017 48.0613 159.278 47.1466 159.502 46.4C159.614 46.1013 159.801 45.896 160.062 45.784C160.361 45.672 160.66 45.6533 160.958 45.728C161.257 45.7653 161.5 45.8773 161.686 46.064C161.91 46.2506 161.985 46.4746 161.91 46.736ZM161.91 38.784C162.284 39.0826 162.433 39.7733 162.358 40.856C162.358 41.2293 162.284 41.584 162.134 41.92C162.022 42.256 161.873 42.4986 161.686 42.648C161.537 42.7973 161.35 42.8346 161.126 42.76C160.902 42.648 160.697 42.368 160.51 41.92C160.473 41.808 160.305 41.528 160.006 41.08C159.745 40.5946 159.558 40.128 159.446 39.68C159.297 39.232 159.372 38.896 159.67 38.672C159.969 38.4106 160.436 38.336 161.07 38.448C161.444 38.5226 161.724 38.6346 161.91 38.784Z" />
        <path d="M174.539 43.376C174.166 44.496 174.035 45.616 174.147 46.736C174.745 46.4373 175.342 46.064 175.939 45.616C176.947 44.9066 177.75 44.1226 178.347 43.264C179.243 41.9946 179.635 41.024 179.523 40.352C179.411 39.6426 179.057 39.2693 178.459 39.232C177.899 39.1946 177.227 39.512 176.443 40.184C175.659 40.856 175.025 41.92 174.539 43.376ZM174.315 47.8C174.614 49.1813 175.137 50.544 175.883 51.888C176.667 53.232 177.433 54.6133 178.179 56.032C179.859 54.6133 181.521 53.232 183.163 51.888C184.843 50.5066 186.467 49.2186 188.035 48.024C188.371 47.8 188.633 47.8186 188.819 48.08C189.043 48.3413 189.006 48.6026 188.707 48.864C187.139 50.0586 185.497 51.3466 183.779 52.728C182.062 54.1093 180.363 55.528 178.683 56.984C178.833 57.2826 178.963 57.5626 179.075 57.824C179.225 58.0853 179.355 58.3653 179.467 58.664C179.803 59.4106 180.083 60.1386 180.307 60.848C180.718 62.192 180.867 63.592 180.755 65.048C180.681 66.504 180.419 67.9226 179.971 69.304C179.561 70.5733 179.019 71.7493 178.347 72.832C177.675 73.952 176.966 74.8853 176.219 75.632C174.465 77.3866 172.822 78.432 171.291 78.768C169.723 79.104 168.491 78.88 167.595 78.096C166.699 77.312 166.233 76.024 166.195 74.232C166.158 72.44 166.793 70.2933 168.099 67.792C168.958 66.1493 169.966 64.5813 171.123 63.088C172.281 61.632 173.699 60.12 175.379 58.552L175.827 58.16C175.305 57.0026 174.745 55.8826 174.147 54.8C173.55 53.68 173.046 52.5413 172.635 51.384C172.225 50.1893 171.963 48.9386 171.851 47.632C171.739 46.3253 171.907 44.888 172.355 43.32C172.654 42.1626 173.158 41.1733 173.867 40.352C174.577 39.5306 175.23 38.9333 175.827 38.56C176.649 38.0373 177.414 37.8133 178.123 37.888C178.87 37.9253 179.449 38.1866 179.859 38.672C180.27 39.12 180.475 39.7546 180.475 40.576C180.475 41.36 180.177 42.2186 179.579 43.152C179.131 43.8613 178.627 44.5146 178.067 45.112C177.507 45.672 177.003 46.12 176.555 46.456C175.771 46.9786 175.025 47.4266 174.315 47.8ZM174.595 74.176C175.193 73.3173 175.678 72.4213 176.051 71.488C176.462 70.592 176.779 69.7706 177.003 69.024C177.526 67.008 177.675 65.1973 177.451 63.592C177.227 62.024 176.835 60.5306 176.275 59.112L176.107 59.28C174.427 60.848 172.99 62.3973 171.795 63.928C170.601 65.4586 169.649 66.9146 168.939 68.296C167.819 70.4986 167.241 72.384 167.203 73.952C167.166 75.52 167.483 76.6213 168.155 77.256C168.827 77.8906 169.761 77.984 170.955 77.536C172.113 77.088 173.326 75.968 174.595 74.176Z" />
        <path d="M191.063 48.248C191.735 48.3226 192.407 48.248 193.079 48.024C193.788 47.8 194.404 47.3893 194.927 46.792C195.711 45.8586 196.065 45.112 195.991 44.552C195.916 43.992 195.617 43.7306 195.095 43.768C194.609 43.8053 193.975 44.1786 193.191 44.888C192.407 45.56 191.697 46.68 191.063 48.248ZM190.783 49.312C190.671 49.7226 190.559 50.2826 190.447 50.992C190.372 51.7013 190.335 52.4666 190.335 53.288C190.335 54.1093 190.391 54.9493 190.503 55.808C190.615 56.6293 190.801 57.376 191.063 58.048C191.361 58.72 191.735 59.2613 192.183 59.672C192.668 60.0826 193.265 60.2693 193.975 60.232C195.244 60.1573 196.364 59.616 197.335 58.608C198.305 57.6 199.164 56.4426 199.911 55.136C200.695 53.792 201.385 52.4666 201.983 51.16C202.58 49.816 203.103 48.7893 203.551 48.08C203.775 47.7066 203.999 47.6133 204.223 47.8C204.484 47.9866 204.54 48.2293 204.391 48.528C203.905 49.536 203.364 50.7306 202.767 52.112C202.169 53.4933 201.479 54.8373 200.695 56.144C199.911 57.4133 199.033 58.5333 198.063 59.504C197.092 60.512 195.991 61.128 194.759 61.352C193.564 61.576 192.519 61.52 191.623 61.184C190.764 60.848 190.017 60.3066 189.383 59.56C188.785 58.8133 188.319 57.936 187.983 56.928C187.647 55.92 187.441 54.8746 187.367 53.792C187.255 52.672 187.273 51.5706 187.423 50.488C187.572 49.4053 187.833 48.4346 188.207 47.576C188.692 46.3813 189.327 45.4106 190.111 44.664C190.895 43.88 191.697 43.32 192.519 42.984C193.34 42.648 194.124 42.4986 194.871 42.536C195.617 42.5733 196.196 42.7786 196.607 43.152C197.017 43.5253 197.204 44.0666 197.167 44.776C197.129 45.448 196.756 46.2506 196.047 47.184C195.412 48.0053 194.609 48.584 193.639 48.92C192.668 49.256 191.716 49.3866 190.783 49.312Z" />
    </g>
    <defs>
        <linearGradient id="gradient" x1="0.18399" y1="24.5999" x2="318.596" y2="24.5999" gradientUnits="userSpaceOnUse">
            <stop stop-color="var(--main-accent)" />
            <stop stop-color="var(--sub-accent)" offset="1" />
        </linearGradient>
    </defs>
</svg>
